<?xml version="1.0" encoding="iso-8859-1"?>
<!-- Generator: Adobe Illustrator 25.2.3, SVG Export Plug-In . SVG Version: 6.00 Build 0)  -->
<svg version="1.1" baseProfile="basic" id="fluent" xmlns="http://www.w3.org/2000/svg" xmlns:xlink="http://www.w3.org/1999/xlink"
	 x="0px" y="0px" viewBox="0 0 50 50" xml:space="preserve">
<path style="fill:#FFCA28;" d="M43.79,18.14l-5.07,4.06C38.9,23.11,39,24.04,39,25c0,7.72-6.28,14-14,14s-14-6.28-14-14
	c0-7.04,5.22-12.88,12-13.86V5.1C12.9,6.11,5,14.65,5,25c0,11.03,8.97,20,20,20s20-8.97,20-20C45,22.59,44.57,20.28,43.79,18.14z"/>
<circle style="fill:#F4511E;" cx="25" cy="25" r="7"/>
<path style="fill:#F4511E;" d="M39.99,11.77l-3.41,5.37c-1.79-2.63-4.46-4.63-7.58-5.56V5.4C33.33,6.28,37.17,8.57,39.99,11.77z"/>
<rect x="29" y="9" style="fill:#F4511E;" width="3" height="16"/>
</svg>