<?xml version="1.0" encoding="UTF-8"?>
<svg id="Layer_1" data-name="Layer 1" xmlns="http://www.w3.org/2000/svg" viewBox="0 0 800 566.1">
  <defs>
    <style>
      .cls-1 {
        fill: #fff;
      }

      .cls-2 {
        fill: #f61c0d;
      }
    </style>
  </defs>
  <path class="cls-2" d="m633.85,0H166.15C74.39,0,0,74.39,0,166.15v233.8c0,91.76,74.39,166.15,166.15,166.15h467.7c91.76,0,166.15-74.39,166.15-166.15v-233.8C800,74.39,725.61,0,633.85,0Zm-112.37,294.43l-218.75,104.33c-5.83,2.78-12.57-1.47-12.57-7.93v-215.19c0-6.55,6.91-10.79,12.75-7.83l218.76,110.86c6.51,3.29,6.39,12.62-.19,15.76Z"/>
  <path class="cls-1" d="m521.48,294.43l-218.75,104.33c-5.83,2.78-12.57-1.47-12.57-7.93v-215.19c0-6.55,6.91-10.79,12.75-7.83l218.76,110.86c6.51,3.29,6.39,12.62-.19,15.76Z"/>
</svg>